<?xml version="1.0" standalone="no"?>
<!DOCTYPE svg PUBLIC "-//W3C//DTD SVG 20010904//EN"
 "http://www.w3.org/TR/2001/REC-SVG-20010904/DTD/svg10.dtd">
<svg version="1.0" xmlns="http://www.w3.org/2000/svg"
 width="800.000000pt" height="800.000000pt" viewBox="0 0 800.000000 800.000000"
 preserveAspectRatio="xMidYMid meet">

<g transform="translate(0.000000,800.000000) scale(0.100000,-0.100000)"
fill="#000000" stroke="none">
<path d="M1282 7769 c-557 -48 -909 -497 -854 -1088 40 -422 241 -835 571
-1175 282 -288 600 -478 954 -567 104 -26 147 -32 287 -36 151 -5 174 -3 277
20 64 15 149 43 197 65 l84 40 78 -23 c303 -88 685 -40 1042 130 61 30 112 55
112 57 0 2 -62 4 -138 4 -104 1 -156 7 -217 23 -162 42 -333 149 -437 272
l-38 45 21 95 c25 111 30 325 10 454 -49 319 -205 659 -428 935 -81 100 -278
291 -381 369 -362 274 -774 411 -1140 380z m583 -593 c0 -147 -2 -170 -17
-179 -12 -8 -21 -7 -32 2 -13 11 -16 40 -16 176 0 89 3 165 7 169 4 4 19 6 33
4 l25 -3 0 -169z m-352 -75 c85 -145 92 -176 42 -176 -28 0 -35 9 -107 130
-42 72 -77 135 -77 142 -1 18 29 44 47 41 9 -2 52 -63 95 -137z m768 129 c10
-6 19 -17 19 -24 0 -14 -130 -247 -153 -274 -16 -20 -61 -11 -65 13 -2 12 27
72 63 135 104 179 96 171 136 150z m-596 -70 c14 -23 44 -150 39 -164 -8 -20
-32 -28 -54 -16 -26 14 -59 153 -40 174 14 18 46 21 55 6z m355 -6 c19 -21
-14 -160 -40 -174 -22 -12 -46 -4 -54 16 -5 14 25 141 39 164 9 15 41 12 55
-6z m-634 -206 c51 -49 64 -67 62 -88 -2 -18 -10 -26 -28 -28 -21 -2 -39 11
-88 62 -34 35 -62 69 -62 74 0 14 28 42 42 42 5 0 39 -28 74 -62z m958 46 c9
-8 16 -20 16 -26 0 -5 -28 -39 -62 -74 -49 -51 -67 -64 -88 -62 -18 2 -26 10
-28 28 -2 21 11 39 62 88 35 34 69 62 74 62 6 0 18 -7 26 -16z m-1119 -142
c120 -72 130 -80 130 -107 0 -49 -31 -42 -166 35 -114 65 -149 91 -149 111 0
12 30 39 43 39 7 -1 71 -36 142 -78z m711 64 c137 -36 250 -133 312 -266 30
-63 36 -89 40 -166 8 -154 -28 -254 -129 -359 l-58 -61 -3 -226 c-3 -210 -4
-228 -23 -248 -27 -30 -228 -130 -261 -130 -31 0 -234 102 -260 131 -17 19
-19 42 -22 247 l-3 226 -55 58 c-34 35 -69 87 -92 135 -36 77 -37 80 -37 199
0 120 0 120 39 200 63 127 168 218 301 260 53 17 188 17 251 0z m638 -2 c33
-32 17 -48 -133 -134 -136 -77 -166 -84 -166 -35 0 28 9 35 130 107 72 42 135
77 142 77 6 1 19 -6 27 -15z"/>
<path d="M1754 6830 c-56 -11 -136 -53 -183 -95 -46 -41 -94 -130 -111 -204
-32 -137 33 -305 149 -386 l41 -28 0 -73 c0 -67 2 -74 20 -74 19 0 20 7 20
175 l0 176 -60 89 c-63 93 -70 118 -44 144 22 23 33 21 146 -30 56 -25 108
-43 117 -41 9 3 57 24 108 48 80 37 96 41 118 31 41 -19 33 -56 -35 -156 l-60
-89 0 -173 0 -174 25 0 c24 0 25 2 25 71 l0 71 65 63 c92 89 119 150 119 275
1 91 -1 100 -37 172 -81 164 -243 243 -423 208z"/>
<path d="M1750 6403 c0 -5 7 -17 15 -27 12 -16 15 -59 15 -213 l0 -193 55 0
55 0 0 191 c0 179 1 193 21 221 l22 30 -24 -7 c-13 -4 -36 -14 -50 -21 -15 -7
-28 -11 -31 -9 -10 11 -78 34 -78 28z"/>
<path d="M1650 5775 l0 -95 190 0 190 0 0 95 0 95 -190 0 -190 0 0 -95z"/>
<path d="M5280 6596 c-162 -62 -610 -231 -994 -376 -510 -193 -694 -266 -680
-272 10 -4 262 -91 559 -192 297 -101 739 -252 981 -335 l442 -152 543 186
c299 103 667 229 818 281 151 52 276 94 278 94 1 0 3 -72 3 -159 l0 -159 -36
-21 c-58 -34 -78 -93 -78 -226 0 -89 4 -119 21 -157 25 -55 43 -66 120 -74
131 -14 177 45 176 226 -1 133 -21 194 -76 229 l-37 25 2 175 3 176 133 45
133 46 -988 372 c-543 205 -997 375 -1008 377 -11 2 -153 -47 -315 -109z"/>
<path d="M4600 5251 l0 -287 128 -42 c156 -51 210 -64 382 -96 443 -81 906
-48 1335 96 l130 44 3 286 2 287 -132 -45 c-73 -25 -297 -102 -497 -170 l-363
-123 -427 145 c-234 81 -456 157 -493 169 l-68 24 0 -288z"/>
<path d="M4593 4663 c-16 -132 -8 -379 16 -493 67 -315 218 -574 433 -740 105
-82 220 -141 334 -171 112 -30 306 -30 419 0 165 44 303 126 435 260 215 217
336 504 365 866 7 82 -10 324 -24 338 -4 4 -41 -4 -82 -18 -489 -168 -1090
-190 -1593 -60 -72 19 -164 45 -205 59 -41 14 -78 26 -82 26 -4 0 -11 -30 -16
-67z"/>
<path d="M4960 2919 c-109 -14 -259 -48 -375 -85 -144 -47 -386 -167 -504
-252 -327 -233 -552 -565 -633 -932 -21 -99 -23 -127 -23 -480 0 -360 1 -378
23 -453 43 -150 117 -271 238 -388 139 -134 311 -225 509 -270 l100 -23 1225
-4 c840 -2 1259 0 1332 8 260 26 500 139 666 314 134 142 211 302 233 490 17
143 7 654 -15 766 -121 613 -603 1091 -1275 1261 -213 54 -289 59 -889 58
-301 -1 -576 -5 -612 -10z"/>
</g>
</svg>
